<svg id="Layer_1" data-name="Layer 1" xmlns="http://www.w3.org/2000/svg" viewBox="0 0 23.37 10.38"><defs><style>.cls-1{fill:#272828;}.cls-2{fill:#fcfcfc;}</style></defs><path class="cls-1" d="M355.46,421.94a15.52,15.52,0,0,0,.76-3.17c.13-.59.06-1.5.82-1.58s.77.87,1,1.43a3.93,3.93,0,0,0,.69,1.46c.27.08.29-.17.4-.29.58-.67.91-.71,1.44,0,.33.42.62.65,1.13.09-.25.9-.69,1-1.24.36s-.72-.62-1.13,0-.78.37-1.12-.08a4.71,4.71,0,0,1-.65-1.61,2.47,2.47,0,0,0-.42-1,8.62,8.62,0,0,0-.7,2.7c-.16.59-.24,1.2-.39,1.79-.06.26-.17.56-.53.52s-.37-.3-.4-.55c-.19-1.33-.37-2.66-.55-4a7.86,7.86,0,0,0-.45-1.92c-.08.76-.19,1.53-.21,2.29a1.25,1.25,0,0,1-1,1.36,1.33,1.33,0,0,1-1.49-.82c-.08-.14-.11-.35-.39-.41.1,1.09.15,2.18-.81,2.92-.37.28-.69.61-1.06.87a8.23,8.23,0,0,1-2.78,1.71,4.35,4.35,0,0,1-5.11-3.33,4.7,4.7,0,0,1,4.71-5.76c-1-.86-3.34-.74-4.87.25s-2.17,2.57-2.42,4.53a1.82,1.82,0,0,1-.24-1.8,5.71,5.71,0,0,1,8.79-3.11c1.31.94,2.48,2.08,3.87,2.91a2.17,2.17,0,0,1,.79,1,.78.78,0,0,0,1,.5c.43-.11.54-.46.57-.85.07-.88.12-1.77.2-2.66a5.34,5.34,0,0,1,.13-.8c.06-.24.1-.52.44-.5s.38.27.42.52c.17,1.24.35,2.48.5,3.73C355.23,419.75,355.34,420.84,355.46,421.94Z" transform="translate(-338.3 -413.75)"/><path class="cls-2" d="M347.65,416a3.59,3.59,0,0,0-3.52,3.19c-.21,1.83.74,3.14,2.83,3.89a3.25,3.25,0,0,1-4.26-.78,4.15,4.15,0,0,1,0-5.52A3.93,3.93,0,0,1,347.65,416Z" transform="translate(-338.3 -413.75)"/><path class="cls-2" d="M348.6,417.32c-1.92,1.2-2,3-.17,4.54a1.31,1.31,0,0,1-1.63.63,3,3,0,0,1,1-5.91C348.27,416.61,348.43,416.92,348.6,417.32Z" transform="translate(-338.3 -413.75)"/><path class="cls-2" d="M348.72,421.36a1.78,1.78,0,0,1-1.16-1.69,1.88,1.88,0,0,1,1.23-1.83A4.32,4.32,0,0,1,348.72,421.36Z" transform="translate(-338.3 -413.75)"/><path class="cls-2" d="M350.36,418.4a3.52,3.52,0,0,1,0,2.2Z" transform="translate(-338.3 -413.75)"/></svg>